<svg width="59" height="55" viewBox="0 0 59 55" fill="none" xmlns="http://www.w3.org/2000/svg">
<rect x="1.34799" y="1.05466" width="56.304" height="53.176" rx="7.82" stroke="#E9E9E9" stroke-width="1.04267"/>
<g clip-path="url(#clip0_0_38)">
<path fill-rule="evenodd" clip-rule="evenodd" d="M15.424 27.7183C15.424 34.4573 20.3184 40.061 26.7196 41.1973V31.4075H23.3309V27.6427H26.7196V24.6301C26.7196 21.2415 28.903 19.3596 31.9912 19.3596C32.9694 19.3596 34.0244 19.5099 35.0026 19.6601V23.1244H33.271C31.6139 23.1244 31.2378 23.9524 31.2378 25.0074V27.6427H34.8524L34.2503 31.4075H31.2378V41.1973C37.639 40.061 42.5333 34.4584 42.5333 27.7183C42.5333 20.2215 36.4337 14.088 28.9787 14.088C21.5236 14.088 15.424 20.2215 15.424 27.7183Z" fill="#0077B7"/>
</g>
<defs>
<clipPath id="clip0_0_38">
<rect width="27.1093" height="27.1093" fill="white" transform="translate(15.424 14.088)"/>
</clipPath>
</defs>
</svg>
