<svg width="58" height="55" viewBox="0 0 58 55" fill="none" xmlns="http://www.w3.org/2000/svg">
<rect x="1.14798" y="1.05466" width="56.304" height="53.176" rx="7.82" stroke="#E9E9E9" stroke-width="1.04267"/>
<g clip-path="url(#clip0_0_31)">
<path d="M21.232 30.4705L20.2884 33.9932L16.8394 34.0662C15.8087 32.1544 15.224 29.9671 15.224 27.6427C15.224 25.395 15.7706 23.2754 16.7396 21.409H16.7403L19.8109 21.9719L21.156 25.0241C20.8744 25.8448 20.721 26.7259 20.721 27.6427C20.7211 28.6377 20.9013 29.591 21.232 30.4705Z" fill="#FBBB00"/>
<path d="M42.0968 25.1103C42.2525 25.9303 42.3337 26.7771 42.3337 27.6425C42.3337 28.6129 42.2316 29.5595 42.0373 30.4726C41.3774 33.5798 39.6533 36.2929 37.2649 38.2129L37.2641 38.2122L33.3966 38.0148L32.8492 34.5978C34.4341 33.6684 35.6726 32.2139 36.325 30.4726H29.077V25.1103H36.4308H42.0968Z" fill="#518EF8"/>
<path d="M37.2632 38.2126L37.264 38.2133C34.9411 40.0804 31.9903 41.1976 28.7782 41.1976C23.6162 41.1976 19.1283 38.3124 16.8389 34.0665L21.2315 30.4708C22.3762 33.5258 25.3232 35.7005 28.7782 35.7005C30.2632 35.7005 31.6545 35.2991 32.8483 34.5982L37.2632 38.2126Z" fill="#28B446"/>
<path d="M37.4301 17.2085L33.039 20.8035C31.8035 20.0312 30.3429 19.585 28.7782 19.585C25.2451 19.585 22.2429 21.8595 21.1556 25.0241L16.7399 21.409H16.7391C18.995 17.0596 23.5396 14.088 28.7782 14.088C32.0671 14.088 35.0826 15.2595 37.4301 17.2085Z" fill="#F14336"/>
</g>
<defs>
<clipPath id="clip0_0_31">
<rect width="27.1093" height="27.1093" fill="white" transform="translate(15.224 14.088)"/>
</clipPath>
</defs>
</svg>
