<svg width="13" height="15" viewBox="0 0 13 15" fill="none" xmlns="http://www.w3.org/2000/svg">
<path fill-rule="evenodd" clip-rule="evenodd" d="M12.8739 7.5994L12.8671 7.63304L12.8624 7.66705C12.582 9.7243 10.9932 11.6091 9.27867 13.0562C8.44322 13.7612 7.62398 14.3238 7.01277 14.7102C6.83521 14.8224 6.67595 14.9193 6.53985 15C6.44941 14.9464 6.34873 14.8856 6.23923 14.8179C5.72776 14.5017 5.02978 14.0384 4.28709 13.4526C2.77349 12.2588 1.19812 10.6526 0.518628 8.84078L0.510203 8.81831L0.500746 8.79624C0.178534 8.04423 0 7.2178 0 6.34796C0 2.84208 2.91015 0 6.5 0C10.0899 0 13 2.84208 13 6.34796C13 6.7773 12.9565 7.19566 12.8739 7.5994Z" fill="#FF8862"/>
<path d="M8.97582 6.42814C8.97582 5.0756 7.86719 3.97916 6.49963 3.97916C5.13207 3.97916 4.02344 5.0756 4.02344 6.42814C4.02344 7.78067 5.13207 8.87712 6.49963 8.87712C7.86719 8.87712 8.97582 7.78067 8.97582 6.42814Z" fill="#ECFFF1"/>
</svg>
