<svg width="22" height="22" viewBox="0 0 22 22" fill="none" xmlns="http://www.w3.org/2000/svg">
<path d="M17.1302 10.1311H4.96581C4.00606 10.1311 3.22803 10.9091 3.22803 11.8689V17.9511C3.22803 18.9109 4.00606 19.6889 4.96581 19.6889H17.1302C18.09 19.6889 18.868 18.9109 18.868 17.9511V11.8689C18.868 10.9091 18.09 10.1311 17.1302 10.1311Z" stroke="black" stroke-width="1.564" stroke-linecap="round" stroke-linejoin="round"/>
<path d="M6.70319 10.1309V6.65538C6.70319 5.50316 7.1609 4.39814 7.97564 3.58339C8.79039 2.76865 9.89541 2.31094 11.0476 2.31094C12.1998 2.31094 13.3049 2.76865 14.1196 3.58339C14.9344 4.39814 15.3921 5.50316 15.3921 6.65538V10.1309" stroke="black" stroke-width="1.564" stroke-linecap="round" stroke-linejoin="round"/>
</svg>
