<svg width="58" height="55" viewBox="0 0 58 55" fill="none" xmlns="http://www.w3.org/2000/svg">
<rect x="0.548006" y="1.05466" width="56.304" height="53.176" rx="7.82" stroke="#E9E9E9" stroke-width="1.04267"/>
<g clip-path="url(#clip0_0_43)">
<path d="M38.958 22.1124C38.9745 22.3515 38.9745 22.5904 38.9745 22.8316C38.9745 30.1808 33.3796 38.6567 23.1495 38.6567V38.6524C20.1272 38.6567 17.1676 37.791 14.624 36.1588C15.0635 36.2117 15.505 36.2382 15.9477 36.2393C18.4526 36.2413 20.8854 35.4011 22.8553 33.8539C21.6947 33.8319 20.5699 33.4479 19.6383 32.7554C18.7066 32.0628 18.0147 31.0965 17.6592 29.9914C18.493 30.1524 19.352 30.1191 20.1704 29.8955C17.5755 29.3713 15.7088 27.0916 15.7088 24.444V24.3734C16.4823 24.8044 17.3481 25.0431 18.2331 25.0696C15.7888 23.4363 15.0359 20.185 16.5117 17.6433C17.908 19.3615 19.6501 20.7668 21.6249 21.7678C23.5997 22.7689 25.763 23.3433 27.9743 23.4538C27.7539 22.5048 27.7865 21.5144 28.0689 20.5819C28.3513 19.6494 28.8736 18.8073 29.5835 18.14C31.8236 16.0341 35.3467 16.1422 37.4524 18.3812C38.698 18.1353 39.8925 17.6786 40.9844 17.0308C40.5692 18.3187 39.7004 19.4119 38.5395 20.1071C39.642 19.9771 40.7187 19.6819 41.7333 19.2313C40.9869 20.3491 40.0471 21.3247 38.958 22.1124Z" fill="#1D9BF0"/>
</g>
<defs>
<clipPath id="clip0_0_43">
<rect width="27.1093" height="27.1093" fill="white" transform="translate(14.624 14.088)"/>
</clipPath>
</defs>
</svg>
