<svg width="26" height="26" viewBox="0 0 26 26" fill="none" xmlns="http://www.w3.org/2000/svg">
<g clip-path="url(#clip0_0_88)">
<path d="M10.0126 0H10.1342C10.3478 0.04355 10.4907 0.151775 10.5629 0.324675C10.5958 0.403758 10.6122 0.541667 10.6119 0.7384C10.6113 1.48352 10.6113 2.22863 10.6119 2.97375C10.6123 3.75115 9.52677 3.75895 9.52449 2.96368C9.52233 2.20599 9.52189 1.44831 9.52319 0.690625C9.52384 0.3354 9.62427 0.064025 10.0126 0Z" fill="#FFC700"/>
<path d="M5.62293 4.64195L3.85629 2.88147C3.6488 2.6747 3.31297 2.67529 3.1062 2.88278L3.08968 2.89936C2.88291 3.10685 2.88349 3.44268 3.09099 3.64946L4.85762 5.40994C5.06512 5.61671 5.40095 5.61612 5.60772 5.40863L5.62424 5.39205C5.83101 5.18456 5.83042 4.84873 5.62293 4.64195Z" fill="#FFC700"/>
<path d="M16.2794 2.8817L14.5123 4.64264C14.305 4.84928 14.3044 5.18491 14.511 5.39227L14.5271 5.40839C14.7337 5.61576 15.0694 5.61634 15.2767 5.4097L17.0438 3.64876C17.2512 3.44211 17.2518 3.10649 17.0451 2.89912L17.0291 2.88301C16.8224 2.67564 16.4868 2.67505 16.2794 2.8817Z" fill="#FFC700"/>
<path d="M6.69792 14.6331C5.20227 13.5584 4.30982 11.9291 4.22759 10.0974C4.08947 7.02683 6.42622 4.32705 9.48999 4.04268C11.8147 3.82688 13.9951 4.95073 15.1544 6.97743C15.1568 6.9816 15.1606 6.98473 15.1651 6.98618C15.1697 6.98763 15.1746 6.98729 15.1788 6.98523C17.9878 5.6797 21.1978 7.28163 21.9008 10.2697C21.9019 10.2745 21.9045 10.279 21.9081 10.2823C21.9118 10.2857 21.9163 10.2879 21.9212 10.2885C24.8053 10.6922 26.545 13.663 25.4556 16.3742C24.3308 19.1727 20.7805 20.046 18.4668 18.1116C18.4486 18.0964 18.4253 18.0885 18.4015 18.0895C17.9878 18.108 17.4769 18.0954 17.1606 18.095C14.1672 18.0942 11.1737 18.0941 8.18024 18.0947C7.93476 18.0947 7.75243 18.0838 7.63327 18.0619C6.63617 17.8776 5.95172 16.9263 6.05442 15.9338C6.10577 15.4367 6.32081 15.0115 6.69954 14.6582C6.70907 14.6493 6.70853 14.6409 6.69792 14.6331ZM8.22704 14.1278C7.95014 11.7078 10.1283 9.776 12.5034 10.3526C12.5055 10.3531 12.5078 10.3532 12.51 10.3528C12.5122 10.3525 12.5143 10.3517 12.5162 10.3505C12.518 10.3493 12.5197 10.3478 12.5209 10.3459C12.5222 10.3441 12.5231 10.342 12.5235 10.3399C12.7428 9.33931 13.2292 8.49279 13.9828 7.80033C14.0634 7.72623 14.1437 7.65213 14.2236 7.57803C14.2323 7.57023 14.2338 7.56124 14.2282 7.55105C12.3844 4.2458 7.59232 4.29748 5.84674 7.66253C4.60784 10.0516 5.57862 12.9851 8.01774 14.1482C8.05328 14.1651 8.11849 14.1645 8.21339 14.1463C8.22379 14.1443 8.22834 14.1382 8.22704 14.1278Z" fill="#FFC700"/>
<path d="M3.24189 9.31552L0.738093 9.31989C0.44911 9.32039 0.215253 9.55507 0.215757 9.84405L0.215816 9.87785C0.21632 10.1668 0.450996 10.4007 0.739978 10.4002L3.24377 10.3958C3.53276 10.3953 3.76661 10.1606 3.76611 9.87165L3.76605 9.83785C3.76555 9.54887 3.53087 9.31501 3.24189 9.31552Z" fill="#FFC700"/>
<path d="M4.8554 14.3049L3.09152 16.0626C2.88403 16.2694 2.88344 16.6052 3.09021 16.8127L3.10673 16.8293C3.3135 17.0368 3.64933 17.0374 3.85683 16.8306L5.6207 15.0729C5.8282 14.8661 5.82878 14.5303 5.62201 14.3228L5.60549 14.3062C5.39872 14.0987 5.06289 14.0981 4.8554 14.3049Z" fill="#FFC700"/>
<path d="M18.0814 18.4275H8.09737C7.89742 18.4275 7.73532 18.5896 7.73532 18.7896V18.7961C7.73532 18.996 7.89742 19.1581 8.09737 19.1581H18.0814C18.2813 19.1581 18.4434 18.996 18.4434 18.7961V18.7896C18.4434 18.5896 18.2813 18.4275 18.0814 18.4275Z" fill="#FFC700"/>
<path d="M10.1075 20.5784L10.0945 20.5687C9.89875 20.4228 9.62182 20.4632 9.47593 20.659L7.87549 22.8061C7.72961 23.0018 7.77 23.2788 7.96573 23.4246L7.97875 23.4344C8.17448 23.5802 8.4514 23.5398 8.59729 23.3441L10.1977 21.197C10.3436 21.0012 10.3032 20.7243 10.1075 20.5784Z" fill="#FFC700"/>
<path d="M13.9109 20.5762L13.8973 20.5661C13.7016 20.4207 13.4252 20.4616 13.2799 20.6573L11.682 22.8088C11.5367 23.0045 11.5775 23.2809 11.7732 23.4262L11.7867 23.4363C11.9824 23.5816 12.2589 23.5408 12.4042 23.3451L14.0021 21.1936C14.1474 20.9979 14.1066 20.7215 13.9109 20.5762Z" fill="#FFC700"/>
<path d="M17.7163 20.5758L17.7032 20.5661C17.5074 20.4206 17.2307 20.4615 17.0853 20.6573L15.4874 22.8088C15.342 23.0047 15.3829 23.2813 15.5787 23.4268L15.5917 23.4364C15.7876 23.5819 16.0642 23.541 16.2097 23.3452L17.8075 21.1937C17.9529 20.9979 17.9121 20.7212 17.7163 20.5758Z" fill="#FFC700"/>
<path d="M7.64866 23.8945L7.6304 23.881C7.43644 23.7369 7.16243 23.7774 7.01839 23.9713L6.04487 25.2822C5.90082 25.4761 5.94129 25.7501 6.13524 25.8942L6.15351 25.9077C6.34747 26.0518 6.62147 26.0113 6.76552 25.8174L7.73904 24.5065C7.88308 24.3126 7.84262 24.0386 7.64866 23.8945Z" fill="#FFC700"/>
<path d="M11.454 23.8947L11.4352 23.8808C11.2413 23.7367 10.9673 23.7772 10.8232 23.9711L9.84971 25.282C9.70566 25.4759 9.74613 25.7499 9.94008 25.894L9.95887 25.9079C10.1528 26.052 10.4268 26.0115 10.5709 25.8176L11.5444 24.5067C11.6884 24.3128 11.648 24.0388 11.454 23.8947Z" fill="#FFC700"/>
<path d="M15.2587 23.8949L15.2399 23.8809C15.0459 23.7369 14.7719 23.7774 14.6279 23.9713L13.6543 25.2822C13.5103 25.4761 13.5508 25.7501 13.7447 25.8942L13.7635 25.9081C13.9575 26.0522 14.2315 26.0117 14.3755 25.8177L15.349 24.5069C15.4931 24.3129 15.4526 24.0389 15.2587 23.8949Z" fill="#FFC700"/>
</g>
<defs>
<clipPath id="clip0_0_88">
<rect width="26" height="26" fill="white"/>
</clipPath>
</defs>
</svg>
